# xmcd
#
# Track frame offsets:
#	183
#	13315
#	32670
#	50333
#	64763
#	83763
#	103913
#	134160
#	144258
#	161248
#	167788
#	185325
#	196908
#	211635
#	230620
#	251410
#
# Disc length: 3610 seconds
#
# Revision: 0
# Processed by: cddbd v1.5.2PL0 Copyright (c) Steve Scherf et al.
# Submitted via: audiograbber 1.83.01
#
DISCID=e00e1810
DTITLE=Jimi Hendrix - Volume 2
DYEAR=1900
DGENRE=
TTITLE0=Little Miss Strange
TTITLE1=Angel
TTITLE2=Night bird flying
TTITLE3=May this be love
TTITLE4=Come on (Part 1)
TTITLE5=Still raining, still dreaming
TTITLE6=3rd stone from the sun
TTITLE7=Have you ever been (to electric ladyland)
TTITLE8=Red House
TTITLE9=And the Gods made love
TTITLE10=I don't live today
TTITLE11=Can you see me
TTITLE12=Love or confusion
TTITLE13=Are you experienced
TTITLE14=House burning down
TTITLE15=The stars that play with Laughing Sam's dice
EXTD=
EXTT0=
EXTT1=
EXTT2=
EXTT3=
EXTT4=
EXTT5=
EXTT6=
EXTT7=
EXTT8=
EXTT9=
EXTT10=
EXTT11=
EXTT12=
EXTT13=
EXTT14=
EXTT15=
PLAYORDER=
